<?xml version="1.0" encoding="utf-8"?>
<!-- Generator: Adobe Illustrator 24.0.3, SVG Export Plug-In . SVG Version: 6.00 Build 0)  -->
<svg version="1.1" xmlns="http://www.w3.org/2000/svg" xmlns:xlink="http://www.w3.org/1999/xlink" x="0px" y="0px"
	 viewBox="0 0 508.2 521.5" style="enable-background:new 0 0 508.2 521.5;" xml:space="preserve">
<style type="text/css">
	.st0{fill:#FFFFFF;}
	.st1{fill:#C49F76;}
	.st2{opacity:0.3;}
	.st3{fill:#1D1D1B;}
</style>
<g id="Layer_1">
</g>
<g id="Layer_2">
	<path class="st0" d="M242,505.7C116.7,500.5,7.2,392.5,1.5,267c3-143.6,124-257.1,265.2-251.2c132.7,5.5,247.8,126.4,240.3,261.3
		C492.4,409.8,375.6,511.2,242,505.7z"/>
	<g>
		<g>
			<g>
				<path class="st1" d="M148,216.7c0-0.1-0.1,0.7-0.2,2.5c-0.2,3.5-0.4,7-0.4,10.3c0,0.4,0.1,1.1,0.2,2.2c0.1,1.1,0.2,2.5,0.2,4.1
					v0.8c0,0.8-0.2,1.2-0.7,1.2c-0.5,0-0.9-0.5-1.3-1.4c-0.9-2-1.7-3.3-2.6-3.9c-4.4,3.9-9.7,5.8-15.9,5.8c-9,0-16.4-3.1-22.3-9.4
					c-5.9-6.3-8.8-14.2-8.8-23.7c0-9.6,2.7-17.4,8.1-23.5c5.4-6.1,12.4-9.1,21-9.1c3.1,0,5.6,0.3,7.5,0.8c1.9,0.5,4.2,1.6,6.9,3.2
					c1.3,0.8,2.4,1.2,3,1.2c0.6,0,1.1-0.5,1.6-1.5c0.8-1.7,1.4-2.6,1.9-2.6c0.5,0,0.7,0.2,0.7,0.7c0,0.2-0.1,0.6-0.2,1.2
					c-0.7,2.9-1,8.4-1,16.5c0,1.2-0.1,1.8-0.3,2c-0.2,0.2-0.4,0.3-0.7,0.3c-0.6,0-1-0.6-1.2-1.7c-0.8-4.9-1.9-8.5-3.4-10.9
					c-3-4.9-7.7-7.3-14.1-7.3c-5,0-8.9,1.7-11.7,5c-5.2,5.9-7.8,14.6-7.8,26c0,10.2,2.1,18.1,6.4,23.7c3.7,4.9,8.7,7.3,14.9,7.3
					c3.2,0,6.1-0.8,8.7-2.3c2.6-1.6,4.6-3.7,6.1-6.4c1.6-3.1,2.7-6.5,3.4-10.2c0.2-1.5,0.6-2.2,1.2-2.2
					C147.7,215.3,148,215.8,148,216.7z"/>
			</g>
		</g>
		<g>
			<g>
				<path class="st1" d="M172.3,236.6c0,0.6-0.5,0.8-1.6,0.8c0.1,0-0.7-0.1-2.2-0.2c-1.8-0.1-3.4-0.2-4.6-0.2h-9.5
					c-0.3,0.2-0.7,0.4-1.1,0.4c-0.7,0-1-0.2-1-0.7c0-0.6,0.6-1,1.8-1c2.3-0.1,3.6-0.2,3.8-0.5c0.2-0.3,0.3-1.5,0.3-3.8l-0.1-27.8
					c-0.1-1.5-0.1-2.4-0.2-2.7c-0.1-0.3-0.5-0.4-1.1-0.4h-2.6c-0.2,0-0.5,0-0.9,0c-0.7,0-1-0.2-1-0.6c0-0.4,0.5-0.6,1.5-0.6
					c4-0.2,7.5-1.1,10.4-2.9l0.9-0.5c0.5,0.9,0.7,2.6,0.7,5c0-0.1,0,0.2,0,0.9c0,0.7,0,1.9,0,3.6v25c0,2.4,0,3.9,0.1,4.3
					c0.1,0.4,0.4,0.7,1,0.8c0.9,0.2,2.3,0.4,4,0.4C171.9,235.8,172.3,236.1,172.3,236.6z M173.6,176.3l-8.3,8.8
					c-3.7,3.9-5.8,5.8-6.4,5.8c-0.4,0-0.5-0.2-0.5-0.5c0-0.1,0.1-0.3,0.2-0.5c0.7-1.7,1.7-4,3-7.2l2.9-6.4h3c0.1,0,0.5,0,1.3,0
					c0.8,0,1.9,0,3.2,0H173.6z"/>
			</g>
		</g>
		<g>
			<g>
				<path class="st1" d="M204,202.5c0,1.4-0.4,2.6-1.3,3.5c-0.9,0.9-2,1.4-3.3,1.4c-1.1,0-2-0.3-2.8-1c-0.7-0.6-1.1-1.5-1.1-2.4
					c0-0.9,0.3-1.6,0.8-2.2c0.5-0.6,0.8-1,0.8-1.3c0-0.9-0.7-1.4-2-1.4c-1.7,0-3.2,1.1-4.4,3.2c-1.4,2.5-2.1,7.1-2.1,13.9v18.1
					c0,0.7,0.3,1.2,0.8,1.4c0.5,0.2,2.1,0.3,4.7,0.4c0.7,0.1,1,0.4,1,0.7c0,0.4-0.4,0.6-1.2,0.6c-1.4,0-2.7,0-3.9,0
					c-1.2,0-3.5,0-7,0c-1.8,0-3.1,0-3.9,0c-0.8,0-1.8,0-3,0c-1,0-1.5-0.2-1.5-0.6s0.4-0.6,1.2-0.6h1.3c2.1,0,3.3-0.2,3.7-0.7
					c0.1-0.2,0.2-1.4,0.2-3.4v-25.3c0-3.4-0.5-5.3-1.5-5.9c-1-0.5-2.6-0.8-4.8-0.9c-0.7,0-1.1-0.2-1.1-0.6c0-0.4,0.3-0.6,0.9-0.6
					h0.6c0.9,0,1.8,0,2.8,0.1c0.9,0.1,1.3,0.1,1.2,0.1c2.3,0,4.8-0.6,7.5-1.9l1.2-0.6l0.7-0.3c0.2,1.5,0.4,2.9,0.4,4.4v1.8
					c2-4.2,4.7-6.2,8.3-6.2c2,0,3.6,0.6,4.9,1.8C203.3,199.2,204,200.7,204,202.5z"/>
			</g>
		</g>
		<g>
			<g>
				<path class="st1" d="M240.2,205.5c0,2.8-1.4,4.2-4.1,4.2c-2.7,0-4-1.3-4-3.9c0-0.7,0.3-1.7,0.9-3c0.2-0.4,0.3-0.9,0.3-1.3
					c0-1.2-0.6-2.2-1.9-3c-1.3-0.8-2.8-1.2-4.7-1.2c-3.7,0-6.5,1.6-8.5,4.8c-2,3.2-3,7.6-3,13.4c0,6.5,1,11.5,3.1,15
					c2.1,3.5,5,5.3,8.8,5.3c2.6,0,4.9-0.8,6.9-2.4c0.9-0.7,2.1-2.1,3.6-4.2c0.3-0.3,0.6-0.5,0.8-0.5c0.6,0,0.9,0.2,0.9,0.7
					c0,0.8-1.1,2.3-3.2,4.5c-2.8,2.9-6.3,4.3-10.5,4.3c-5.4,0-9.8-1.9-13.3-5.8c-3.5-3.9-5.3-8.7-5.3-14.6c0-6.3,1.9-11.5,5.6-15.6
					c3.7-4.1,8.4-6.2,14-6.2c3.6,0,6.8,0.9,9.6,2.8C238.8,200.8,240.2,203,240.2,205.5z"/>
			</g>
		</g>
		<g>
			<g>
				<path class="st1" d="M287.1,234c0,0.4-0.7,0.7-2,0.7c-4.8,0.3-9,1.3-12.6,3.1c-0.2,0.1-0.5,0.2-0.6,0.2c-0.4,0-0.6-0.2-0.6-0.7
					v-5.1c-2.8,3.9-6.7,5.9-11.7,5.9c-4.5,0-7.7-1.3-9.6-3.9c-0.8-1.1-1.3-2.1-1.4-3c-0.2-0.9-0.2-3.4-0.2-7.4v-20.9
					c0-2.1-0.1-3.4-0.4-3.7c-0.2-0.4-1.1-0.6-2.5-0.6h-1.2c-1.7,0.1-2.5-0.1-2.5-0.7c0-0.4,0.5-0.6,1.6-0.6c1.1,0,2.7,0.1,4.8,0.2
					c1,0.1,1.7,0.1,1.8,0.1c2.1,0,4.1-0.1,6-0.4v25.5c0,4.7,0.3,7.8,0.9,9.3c1,2.4,3,3.6,6,3.6c3.2,0,5.6-1.3,7.2-4
					c1.1-1.9,1.7-5,1.7-9.3V208c0-2.1-0.1-3.6-0.3-4.7v-3c-0.1-0.9-0.3-1.4-0.6-1.6c-0.3-0.2-1-0.2-2.1-0.2
					c-2.6,0.1-3.9-0.2-3.9-0.8c0-0.4,0.6-0.5,1.9-0.5h0.8c0.5,0,2.1,0,4.9,0c3.7,0,5.9,0,6.8,0v25.6c0,4.4,0.1,7.2,0.3,8.3
					c0.2,1.2,0.6,1.8,1.4,2c0.8,0.2,2.5,0.3,5.1,0.3C286.8,233.4,287.1,233.6,287.1,234z"/>
			</g>
		</g>
		<g>
			<g>
				<path class="st1" d="M306.9,236.5c0,0.5-0.4,0.8-1.2,0.8h-1.1c-0.1,0-1.7-0.1-4.9-0.2h-2.8c-0.5,0-2.9,0-7.3,0.1
					c-0.4,0-0.7,0-1.1,0c-0.9,0.1-1.4-0.2-1.4-0.8c0-0.4,0.3-0.6,1-0.6h2.4c1.7,0,2.6-0.4,2.6-1.1c0.1-0.4,0.1-2.8,0.1-7.2V181
					c0-2-0.1-3.1-0.2-3.3c-0.2-0.5-0.7-0.7-1.5-0.7h-0.7h-2.6c-0.9,0-1.3-0.3-1.3-0.8c0-0.5,0.8-0.7,2.3-0.8c2.9-0.2,5.7-0.9,8.2-2
					l1.9-0.9l0.7-0.3c0.5,1.8,0.7,4.5,0.6,8.1v6.5v44.9c0,1.8,0,2.9,0.1,3.3c0.1,0.3,0.3,0.6,0.6,0.7c0.1,0.1,1.2,0.1,3.4,0.2
					C306.2,235.8,306.9,236.1,306.9,236.5z"/>
			</g>
		</g>
		<g>
			<g>
				<path class="st1" d="M348.9,217.3c0,5.9-1.8,10.9-5.4,14.9c-3.6,4-8.1,6-13.5,6c-5.6,0-10.2-2-13.9-6c-3.7-4-5.6-9-5.6-14.9
					c0-6.1,1.8-11.2,5.5-15.2c3.6-4,8.2-6.1,13.6-6.1c5.5,0,10.1,2,13.8,6.1C347.1,206.2,348.9,211.3,348.9,217.3z M340.6,217.2
					c0-6.7-1-11.9-3.1-15.7c-1.5-2.8-4.1-4.1-7.7-4.1c-3.4,0-6.1,1.8-8,5.3c-1.9,3.5-2.9,8.4-2.9,14.6c0,6.2,1,11,3.1,14.4
					c2,3.5,4.9,5.2,8.6,5.2c2.8,0,4.9-1.1,6.2-3.2C339.3,229.7,340.6,224.2,340.6,217.2z"/>
			</g>
		</g>
		<g>
			<g>
				<path class="st1" d="M156.2,312.9c0,0.5-0.4,0.8-1.1,0.8h-0.9c-0.4-0.2-4.5-0.3-12.5-0.3c-1.5,0-3.1,0.1-4.6,0.2
					c-0.8,0.1-2,0.1-3.7,0.1c-0.8,0-1.2-0.3-1.2-0.8c0-0.5,0.8-0.8,2.4-0.8c2.4-0.1,3.9-0.4,4.3-0.9c0.4-0.5,0.6-2.3,0.6-5.3v-48.4
					c0-3-0.2-4.7-0.5-5.1c-0.4-0.6-2.1-1-5.1-1.1c-1.2-0.1-1.8-0.3-1.8-0.6c0-0.5,0.4-0.7,1.1-0.7h12.5c0.9,0,2.7,0,5.4,0.1l3.5-0.1
					c1,0,1.5,0.3,1.5,0.8c0,0.5-1.4,0.8-4.1,0.9c-1.5,0.1-2.5,0.3-2.8,0.8c-0.3,0.5-0.5,1.8-0.5,3.9v49c0,3.5,0.2,5.4,0.5,5.7
					c0.7,0.7,2.7,1.1,6,1.2C155.9,312.1,156.2,312.4,156.2,312.9z"/>
			</g>
		</g>
		<g>
			<g>
				<path class="st1" d="M227,313.1c0,0.5-0.6,0.8-1.9,0.8h-1c-0.9,0-2.4,0-4.7,0c-2.3,0-4,0-5.2,0c-1.8,0-4,0-6.4,0
					c-2.5,0-4.1,0-4.9,0h-0.6c-1.3,0-1.9-0.3-1.9-0.8c0-0.6,0.9-0.9,2.7-0.9c3.1,0,5-0.3,5.7-1c0.3-0.3,0.5-2.4,0.5-6.2v-47.6
					c0,0.1-0.4,1.1-1.1,3.2c-2.5,7.4-6,18.5-10.7,33.4l-4.3,14.6c-0.9,2.9-1.5,4.3-1.8,4.3c-0.4,0-0.9-0.7-1.4-2.2
					c-1.8-5.6-6.8-19.4-15-41.6l-3.6-9.8c0,1.2,0,2.8,0,4.8v29.8c0,11.2,0.1,16.8,0.3,17c0.4,0.8,1.9,1.2,4.4,1.2c2,0,3,0.3,3,0.9
					c0,0.7-0.6,1-1.9,1c-0.8,0-1.5-0.1-2.2-0.2c-0.9-0.1-1.6-0.2-2.3-0.2l-10.5,0.4c-1.1,0-1.7-0.3-1.7-0.8c0-0.6,1.7-0.9,5.2-1
					c1.5,0,2.3-0.2,2.6-0.7c0.2-0.5,0.4-2.1,0.4-4.8v-44c0-5.1-0.1-7.8-0.2-8.3c-0.2-0.9-0.8-1.4-1.6-1.7c-0.8-0.3-2.5-0.6-5.1-0.7
					c-1-0.1-1.5-0.3-1.5-0.8c0-0.7,0.9-1,2.7-1c0.2,0,0.8,0,1.6,0h4.8c3.6,0,6.2,0,7.7-0.1c0.3,0.8,2.1,5.6,5.3,14.4
					c1.4,3.7,5.3,14.4,11.7,32.1c1.2-4,2.3-7.9,3.6-11.8l9.8-30.3c0.6-1.7,1.1-3.2,1.6-4.3l13.6-0.1c2,0,3.1,0.1,3.4,0.3
					c0.3,0.2,0.5,0.5,0.5,0.8c0,0.6-0.5,0.9-1.6,0.9c-1.7,0-2.9,0.1-3.5,0.2c-1.5,0.2-2.5,0.7-3,1.5c-0.3,0.4-0.5,4-0.5,10.8v42.8
					c0,2.5,0.2,3.9,0.7,4.3c0.8,0.6,2.8,0.8,6,0.8h0.5C226.4,312.3,227,312.6,227,313.1z"/>
			</g>
		</g>
		<g>
			<g>
				<path class="st1" d="M286.9,313.1c0,0.5-0.5,0.8-1.4,0.8c-0.6,0-1.2,0-1.7-0.1l-11.6-0.4l-11.6,0.4c-0.4,0.1-0.9,0.1-1.4,0.1
					c-1.2,0-1.8-0.3-1.8-1c0-0.7,0.8-1.1,2.5-1.1c5.4-0.1,8.1-0.6,8.1-1.6c0-0.1-0.1-0.3-0.2-0.7l-0.7-2.4l-0.5-1.3
					c-0.5-1.9-1.9-6.1-4-12.6h-19.6c-3.7,9.8-5.5,15.4-5.5,16.9c0,0.9,0.4,1.4,1.1,1.6c0.2,0.1,1.7,0.2,4.6,0.4
					c1.8,0.1,2.7,0.4,2.7,0.9c0,0.6-0.8,0.9-2.4,0.9c-2.8,0-6.1-0.1-9.8-0.4c-0.9-0.1-1.9-0.1-2.8-0.1c-1,0-1.9,0.1-2.8,0.3
					c-0.5,0.1-0.9,0.2-1.2,0.2c-0.9,0-1.3-0.3-1.3-0.8c0-0.6,1-0.9,2.9-0.9c1.9-0.1,3.3-0.4,4.2-0.9c0.9-0.5,1.5-1.5,2-3
					c7.9-22.6,14.3-40.7,19.2-54.4c0.1-0.7,0.4-1.5,0.9-2.4l0.4-1.7c0.2-0.7,0.4-1,0.7-1c0.2,0,0.3,0.2,0.5,0.6
					c0.8,2.4,2.6,7.4,5.4,14.9c2.2,5.9,7.7,20.8,16.4,44.7c0.5,1.4,1.1,2.3,1.9,2.6c0.8,0.4,2.3,0.6,4.7,0.7
					C286.2,312.3,286.9,312.6,286.9,313.1z M262.1,291.1c-1-2.8-2.6-7.3-4.9-13.7l-4.4-12.7c-2.6,6.8-5.7,15.6-9.3,26.4H262.1z"/>
			</g>
		</g>
		<g>
			<g>
				<path class="st1" d="M345.7,294.4c0,0.5-0.3,0.7-0.8,0.7h-2.1c-2.8-0.1-4.4,0.4-4.8,1.5c-0.2,0.7-0.4,3.4-0.4,7.9v2.9
					c-3.1,2.7-6.1,4.6-9,5.7c-2.9,1.1-6.4,1.6-10.4,1.6c-9.7,0-17.3-2.9-23-8.7c-5.7-5.8-8.5-13.6-8.5-23.5c0-10,2.8-18.1,8.3-24.3
					c5.6-6.2,12.9-9.3,22-9.3c4,0,8.3,1.1,13,3.3c1.4,0.7,2.6,1,3.5,1c1.2,0,1.9-0.7,2.3-2.2c0.3-0.9,0.7-1.3,1.1-1.3
					c0.5,0,0.7,0.2,0.7,0.7c0,0.2-0.1,0.8-0.2,1.9c-0.3,3.5-0.5,6-0.5,7.5v6c0.1,2.1,0.1,3.1,0.1,2.8c-0.1,1.5-0.5,2.2-1.2,2.2
					c-0.5,0-0.9-0.4-0.9-1.3c-0.3-6-2-10.6-5.1-14c-3.1-3.4-7.2-5.1-12.3-5.1c-6.4,0-11.4,2.9-15.1,8.6c-3.7,5.7-5.5,13.5-5.5,23.3
					c0,9.4,1.9,16.9,5.6,22.5c3.8,5.5,8.8,8.3,15.3,8.3c4.9,0,8.3-1.4,10.1-4.2c0.9-1.4,1.4-3.9,1.4-7.6c0-3-0.3-4.8-0.9-5.4
					c-0.6-0.5-2.6-0.8-6-0.7c-0.9,0-1.4,0-1.7-0.1c-0.2-0.1-0.4-0.3-0.4-0.6c0-0.7,0.7-1,2-1h1.7c0.9,0.1,4.2,0.1,9.7,0h7.7
					c0.4,0,0.9,0,1.4,0c0.5,0,0.8,0,1,0C345.1,293.6,345.7,293.9,345.7,294.4z"/>
			</g>
		</g>
		<g>
			<g>
				<path class="st1" d="M395.1,298.9c0,0.2-0.1,1.7-0.2,4.5c-0.1,2.8-0.2,5.4-0.2,7.9v3c-6-0.4-17.8-0.5-35.6-0.5
					c-2.1,0-4.2,0-6.3,0c-2.1,0-3.5,0-4.2,0h-0.9c-1.2,0-1.7-0.2-1.7-0.7c0-0.3,0.2-0.5,0.5-0.6c0.2,0,1.3-0.1,3.5-0.2
					c1.6-0.1,2.6-0.5,2.9-1c0.3-0.6,0.5-2,0.5-4.3v-51.7c0-1.8-0.3-2.8-0.8-3.2c-0.5-0.3-2.2-0.5-5-0.5c-1,0-1.5-0.3-1.5-0.8
					c0-0.5,0.7-0.8,2-0.8h15.7c0.6,0,4,0,10.4,0c6.4,0,10.6,0,12.8,0c1.8,0,3.5-0.1,5-0.4c0.1,2.6,0.4,6.3,0.8,10.9l0.4,3.9
					c0.1,0.3,0.1,0.7,0.1,1.2c0,0.6-0.3,0.9-0.8,0.9c-0.7,0-1.2-0.8-1.5-2.3c-1.2-5.5-3.1-9-5.7-10.5c-2-1.1-7.1-1.7-15.4-1.7h-7.5
					v27h2.2c6.8,0,11-0.5,12.5-1.6c1.5-1,2.5-4.1,3.1-9.1c0.1-1.3,0.5-1.9,1-1.9c0.7,0,1,0.5,1,1.7c0,1.1-0.1,2.7-0.2,4.9
					c-0.1,2.1-0.2,3.8-0.2,4.9c0,6.5,0.1,11,0.3,13.5c0,0.6,0.1,1.1,0.1,1.6c0,0.8-0.3,1.2-1,1.2c-0.4,0-0.7-0.3-0.9-0.8
					c-0.2-0.5-0.4-2.2-0.8-5.1c-0.5-3.6-2-5.8-4.5-6.7c-1.1-0.4-4-0.5-8.6-0.5h-4.1v30.7c13.4,0,21.3-0.3,23.7-0.8
					c4-0.9,6.3-4.8,6.9-11.6c0.1-1.5,0.5-2.3,1.2-2.3C394.8,297,395.1,297.6,395.1,298.9z"/>
			</g>
		</g>
		<g>
			<g>
				<path class="st1" d="M455.8,250.9c0,0.6-0.8,0.9-2.3,0.8h-2h-1.7c-1,0-1.6,0.2-1.7,0.5c-0.2,0.3-0.3,1.4-0.3,3.1V308
					c0,3.2,0,5.1-0.1,5.7c-0.1,0.5-0.2,0.8-0.5,0.8c-0.4,0-0.8-0.3-1.3-1l-11.7-17.2c-6.8-10-15.1-22.5-24.8-37.5v51.3
					c0.1,0.8,0.5,1.3,1.4,1.5c0.9,0.2,2.9,0.4,6.2,0.4c0.8,0,1.2,0.2,1.2,0.7c0,0.6-0.8,0.9-2.4,0.9c-0.6,0-2.3-0.1-5.2-0.3
					c-1-0.1-1.9-0.1-2.8-0.1c0.1,0-0.5,0.1-1.6,0.2c-1.1,0.1-2.9,0.2-5.2,0.2h-0.9c-1.4,0-2.1-0.3-2.1-0.8c0-0.5,0.6-0.8,1.8-0.8
					c3.6-0.1,5.7-0.3,6.3-0.7c0.6-0.4,0.9-1.7,0.9-3.9v-45.3c0-5.1-1-8.3-3.1-9.5c-1-0.6-2.7-0.9-5.2-0.9c-1.6,0-2.4-0.3-2.4-1
					c0-0.6,0.5-0.9,1.4-0.9c1.2,0,2.8,0.1,4.7,0.2c1.9,0.1,2.9,0.2,3,0.2c0.2,0,1,0,2.6-0.1c2,0,4-0.1,5.9-0.3l31.6,47.2v-40.8
					c0-1.9,0-3-0.1-3.4c-0.1-0.4-0.3-0.7-0.7-0.9c-0.4-0.2-1.9-0.3-4.4-0.3c-2.2,0-3.3-0.3-3.3-0.8c0-0.6,0.7-0.9,2.2-0.9h3.2
					c0.8,0,1.7,0,2.6,0c1,0,1.6,0,1.7,0c0.1,0,0.6,0,1.7,0c1,0,1.9,0,2.8,0h2.8C455.2,250,455.8,250.3,455.8,250.9z"/>
			</g>
		</g>
	</g>
	<g>
		<g class="st2">
			<g>
				<g>
					<path class="st1" d="M371.9,130.5c-2.5-0.2-4.2-1.3-4.6-2.8c-0.6-2.4,2.5-5.3,6.8-6.3c1.5-0.4,3-0.5,4.4-0.4
						c2.5,0.2,4.2,1.3,4.6,2.8c0.3,1.2-0.3,2.5-1.6,3.7c-1.3,1.2-3.1,2.1-5.2,2.6C374.8,130.5,373.3,130.7,371.9,130.5z"/>
				</g>
			</g>
		</g>
		<g class="st2">
			<g>
				<g>
					<path class="st1" d="M336.7,164.9c-0.1,0-0.2-0.1-0.2-0.2c0-0.1-1.8-10.2,2.3-21.5c6.9-19,24.7-27,38.4-30.3
						c0.1,0,0.2,0,0.3,0.2c0,0.1,0,0.3-0.2,0.3c0,0-0.4,0.1-1,0.3c-1.1,0.2-2.1,0.5-3,0.9c-4.5,1.6-8.3,4.2-10.8,7.4
						c-2.4,3.2-3.2,6.5-2.2,9.3c1.2,3.4,5,5.8,10,6.3c1.4,0.1,2.8,0.1,4.3,0c0.1,0,0.2,0.1,0.3,0.2c0,0.1-0.1,0.2-0.2,0.3
						c-11.6,1.3-32,9.7-37.7,26.7C336.9,164.8,336.8,164.9,336.7,164.9C336.7,164.9,336.7,164.9,336.7,164.9z"/>
				</g>
			</g>
		</g>
		<g class="st2">
			<g>
				<g>
					<path class="st1" d="M373.8,161.1c-2.6-0.3-4.9,0.6-5.1,2c-0.1,0.7,0.3,1.4,1.2,2c0.9,0.7,2.1,1.1,3.5,1.3
						c2.8,0.4,5.2-0.6,5.4-2c0.2-1.4-2-2.9-4.7-3.3C374,161.1,373.9,161.1,373.8,161.1z"/>
				</g>
			</g>
		</g>
		<g class="st2">
			<g>
				<g>
					<path class="st1" d="M379.5,151.9c-16.3-1.6-26.4,6.6-32,13.8c-4.8,6.2-7.2,12.7-8,15.1c6.9-7.5,19.8-11.2,28.3-10.4l0,0
						c-4.1-1.9-5.6-4.7-5.1-6.9c0.7-3.7,4.1-7,9.8-9.4C375.2,153,377.9,152.2,379.5,151.9C379.5,151.9,379.5,151.9,379.5,151.9z"/>
				</g>
			</g>
		</g>
		<g>
			<g>
				<g>
					<g>
						<path class="st3" d="M380.3,183c-14.6-4.5-28.6,0-39.7,10.7l0,0c0.4-0.4-0.3,0.3,0.2-0.2c10.8-10.4,24.3-17.1,38.6-13.2
							C379.4,180.3,380.3,181.4,380.3,183z"/>
					</g>
				</g>
			</g>
		</g>
		<g>
			<g>
				<g>
					<g>
						<path class="st3" d="M331.5,192.2c7.3-0.7,13.4,2.7,17.6,8.7l0,0c-0.2-0.2,0.1,0.1-0.1-0.1c-4.1-5.9-9.8-10.3-16.9-9.8
							C332.2,191,331.6,191.5,331.5,192.2z"/>
					</g>
				</g>
			</g>
		</g>
		<g>
			<g>
				<g>
					<path class="st3" d="M402.2,143.4c-1.4-0.6-2.1-0.7-3.3-1c-9.8-2.6-20.5-3.1-30.2-0.2c-16.7,4.9-27.3,18.3-33,34.2
						c0,0-0.1,0.4-0.3,0.4c-0.2,0-0.2-0.4-0.2-0.4c-6.3-19.1-5.6-34.9,2.1-47.2c11.9-19.1,36.9-22.7,37.1-22.7l0.1,0.5
						c-0.2,0-25,3.6-36.8,22.5c-7.5,12-8.3,27.6-2.3,46.2c0-0.2,0.2-0.6,0.2-0.7c2.5-7,5.7-13.6,10.3-19.5
						c9-11.2,22.1-17.3,36.4-17.4c6.1-0.1,12.7,0.6,18.6,2.6C400.9,140.6,401.9,141.6,402.2,143.4z"/>
				</g>
			</g>
			<g>
				<g>
					<g>
						<path class="st3" d="M339.7,185.1l-0.3-0.3c0,0,4.6-4.6,12.5-7.9c7.3-3,18.9-5.5,33-0.2l-0.2,0.4
							C358,167.1,339.9,185,339.7,185.1z"/>
					</g>
				</g>
			</g>
			<g>
				<g>
					<g>
						<g>
							<path class="st3" d="M339.4,191.7c-7.9-9.8-12.6-22.3-12.7-35c-0.1-10.6,3.5-21.3,9.3-30.1c11.4-17.4,32-26.9,52.5-25
								c0,0-1.2-1.8-1.3-2c-0.3-0.4-1.1-1.6-1.6-1.7c-21.2-2-41.8,8.1-53.2,26.1c-5.9,9.3-8.9,20.4-8.5,31.4
								c0.4,11.9,5.4,23.2,12.3,32.8c0.9,1.3,1.9,2.6,2.9,3.8c0.1,0.1,1.4,1.8,1.6,1.7C340.9,193.5,339.5,191.8,339.4,191.7
								L339.4,191.7z"/>
						</g>
					</g>
				</g>
			</g>
			<g>
				<g>
					<g>
						<path class="st3" d="M377.3,160.8c-0.1,1.6-2.5,2.8-5.4,2.7c-2.9-0.1-5.3-1.5-5.2-3.1c0.1-1.6,2.5-2.8,5.4-2.7
							C375,157.8,377.3,159.2,377.3,160.8z"/>
					</g>
				</g>
			</g>
			<g>
				<g>
					<g>
						<path d="M376.6,148.2c-16.2-0.1-25.4,8.8-30.4,16.3c-4.4,6.7-6.2,13.6-6.8,16.2c6.4-8.5,19.3-13,27.2-13l2.7,0.2
							c0,0,0.5,0.1,0.6,0.2c0.1,0.1-0.2,0.2-0.7,0.2c-0.3-0.1-0.7-0.1-1-0.1c-7.7-0.8-22.5,4-29,13.6l-0.6,0.9l0.2-1
							c0-0.1,1.5-8.9,7.1-17.4c5.2-7.9,14.9-17.2,32.2-16.5c0,0,1.2,0.1,0.1,0.5"/>
					</g>
				</g>
			</g>
			<g>
				<g>
					<g>
						<path class="st3" d="M379.7,120.5c0.7,2.3-2,5.2-6.2,6.5c-4.1,1.4-8.1,0.6-8.8-1.6c-0.7-2.3,2-5.2,6.2-6.5
							C375,117.5,379,118.3,379.7,120.5z"/>
					</g>
				</g>
			</g>
			<g>
				<g>
					<g>
						<g>
							<path d="M372.7,136c-15.7,3.1-32.2,13.6-36.3,29.9c0.3-0.2,0.6-0.3,0.9-0.5c-2.8-10.7-0.9-22.7,4.4-32.3
								c6.2-11.2,17.6-17.5,29.4-21.4c0.3-0.1,0.6-0.4,0.9-0.5c-10.2,3.4-20.2,8.3-27.3,16.7c-8.5,10.1-11.7,25.2-8.3,37.9
								c0-0.1,0.8-0.4,0.9-0.5c4-15.9,19.2-25.8,34.6-28.9C372.1,136.5,372.4,136.1,372.7,136L372.7,136z"/>
						</g>
					</g>
				</g>
			</g>
		</g>
	</g>
	<g>
		<g>
			<g>
				<path class="st3" d="M109.3,273.1c0,0.2-0.2,0.3-0.5,0.3h-0.2c-0.2,0-0.4,0-0.6,0h-0.3c-1.2,0-2.2,0.2-3,0.7
					c-0.3,0.2-0.5,0.3-0.6,0.3c-0.2,0-0.3-0.1-0.3-0.4l0-1.1c-1,1-2.3,1.6-3.7,1.6c-2.1,0-3.7-0.8-5.1-2.4c-1.3-1.6-2-3.6-2-6
					c0-2.5,0.7-4.6,2-6.1c1.3-1.6,3.1-2.4,5.2-2.4c1.7,0,2.9,0.6,3.7,1.8v-5.7c0-1.9-0.1-3-0.3-3.4c-0.1-0.4-0.4-0.5-0.6-0.5
					c-0.7,0.1-1.1,0.1-1.3,0.1c-0.3,0-0.5-0.1-0.5-0.3c0-0.2,0.1-0.3,0.4-0.3l1.3,0c0.7,0,1.8-0.3,3.3-1c0.1,0,0.2-0.1,0.3-0.1
					c0.2,0,0.4,0.3,0.4,0.9c0,0.1,0,0.4,0,0.8c0,0.4,0,0.7,0,1v12.6c0,5.8,0,8.9,0.1,9.3c0,0.2,0.6,0.3,1.7,0.3
					C109.1,272.9,109.3,273,109.3,273.1z M103.9,264c0-2.3-0.3-3.8-0.8-4.5c-0.7-0.8-1.5-1.2-2.5-1.2c-1.3,0-2.4,0.7-3.1,2.1
					c-0.8,1.4-1.2,3.2-1.2,5.5c0,2.2,0.3,4.1,1,5.6c0.3,0.7,0.7,1.2,1.3,1.6c0.6,0.4,1.2,0.6,1.8,0.6c0.8,0,1.4-0.2,2-0.7
					c0.6-0.5,1-1,1.2-1.6C103.8,270.7,103.9,268.3,103.9,264z"/>
			</g>
		</g>
		<g>
			<g>
				<path class="st3" d="M124,269.9c0,0.2-0.2,0.7-0.6,1.3c-0.4,0.6-0.8,1.1-1.2,1.5c-1,1.1-2.5,1.6-4.2,1.6c-2.2,0-4-0.8-5.5-2.4
					c-1.5-1.6-2.2-3.6-2.2-5.9c0-2.4,0.7-4.5,2.1-6.1c1.4-1.6,3.2-2.5,5.3-2.5c1.7,0,3.2,0.5,4.4,1.5c1.2,1,1.8,2.3,1.9,3.9
					c-0.8,0.1-1.8,0.2-3.1,0.1h-2.6c-0.2,0-1.6,0-4.4,0.1c-0.1,0.8-0.2,1.6-0.2,2.3c0,2.5,0.5,4.3,1.4,5.7c0.9,1.3,2.3,2,4,2
					c1,0,1.8-0.2,2.3-0.7c0.6-0.4,1.2-1.3,1.9-2.5c0.1-0.2,0.2-0.3,0.4-0.3C123.9,269.6,124,269.7,124,269.9z M120.8,262.4
					c-0.1-2.9-1.1-4.4-3.1-4.4c-2,0-3.2,1.5-3.7,4.4H120.8z"/>
			</g>
		</g>
	</g>
	<g>
		<g>
			<path class="st3" d="M508.2,263.4c-0.6-53.2-13.8-104.2-43.2-149.4C428.1,57.6,368.9,18.8,303.8,5.1
				C165.9-23.7,30.1,72.8,4.1,211.2c-3,16-4,32.2-4.1,48.5c0,1,0.4,5.6,0.8,8.9c2.1,49.4,15.4,96.7,43,138.9
				c36.9,56.4,96.1,95.3,161.2,108.9c137.8,28.9,273.6-67.6,299.6-206.1c3-16,3.5-32.2,3.6-48.5 M242,505.7
				C116.7,500.5,7.2,392.5,1.5,267c3-143.6,124-257.1,265.2-251.2c132.7,5.5,247.8,126.4,240.3,261.3
				C492.4,409.8,375.6,511.2,242,505.7z"/>
		</g>
	</g>
	<g>
		<g>
			<g>
				<path class="st3" d="M133.2,332.4h7.5v1.5h-6.5v6.5h6.1v1.5h-6.1v7.1h6.5v1.5h-7.6V332.4z"/>
			</g>
		</g>
		<g>
			<g>
				<path class="st3" d="M148.4,332.4h1.1l3.5,16.1h0l3.5-16.1h1.1l-4,18h-1.2L148.4,332.4z"/>
			</g>
		</g>
		<g>
			<g>
				<path class="st3" d="M166,332.4h7.5v1.5h-6.5v6.5h6.1v1.5h-6.1v7.1h6.5v1.5H166V332.4z"/>
			</g>
		</g>
		<g>
			<g>
				<path class="st3" d="M182.5,332.4h1.2l6.3,15.3h0v-15.3h1v18h-1.2l-6.3-15.3h0v15.3h-1V332.4z"/>
			</g>
		</g>
		<g>
			<g>
				<path class="st3" d="M199.4,332.4h8.6v1.5h-3.8v16.6h-1v-16.6h-3.8V332.4z"/>
			</g>
		</g>
		<g>
			<g>
				<path class="st3" d="M221,332.1c3.4,0,5.1,4.5,5.1,9.4c0,4.9-1.7,9.4-5.1,9.4c-3.4,0-5.1-4.5-5.1-9.4
					C215.9,336.5,217.6,332.1,221,332.1z M221,349.4c2.9,0,4.1-4,4.1-7.9c0-3.9-1.2-7.9-4.1-7.9c-2.9,0-4.1,4-4.1,7.9
					C216.9,345.4,218.1,349.4,221,349.4z"/>
			</g>
		</g>
		<g>
			<g>
				<path class="st3" d="M235.6,344.5c0,3.7,1.6,4.9,3.5,4.9c1.1,0,2.9-1,2.9-3.7c0-2-1.2-2.9-2.2-3.3l-2.4-1
					c-1.3-0.5-2.5-1.5-2.5-4.3c0-1.8,0.7-5.1,3.7-5.1c2.1,0,4,1.9,4,5.6h-1c-0.1-2.8-1.4-4.1-3-4.1c-1.4,0-2.7,0.9-2.7,3.6
					c0,1.7,0.8,2.4,1.6,2.8l2.6,1.1c1.5,0.7,2.8,1.8,2.8,4.7c0,1.2-0.3,5.2-4.2,5.2c-2.6,0-4.5-1.9-4.3-6.3H235.6z"/>
			</g>
		</g>
		<g>
			<g>
				<path class="st3" d="M264.3,337.9c-0.4-2.8-1.8-4.4-3.3-4.4c-2.9,0-4.1,4-4.1,7.9c0,3.9,1.2,7.9,4.1,7.9c2,0,3.3-2.6,3.5-5.8h1
					c-0.3,4.4-2,7.3-4.5,7.3c-3.4,0-5.1-4.5-5.1-9.4c0-4.9,1.7-9.4,5.1-9.4c2.1,0,4.1,2,4.4,5.8H264.3z"/>
			</g>
		</g>
		<g>
			<g>
				<path class="st3" d="M279,332.1c3.4,0,5.1,4.5,5.1,9.4c0,4.9-1.7,9.4-5.1,9.4c-3.4,0-5.1-4.5-5.1-9.4
					C273.9,336.5,275.6,332.1,279,332.1z M279,349.4c2.9,0,4.1-4,4.1-7.9c0-3.9-1.2-7.9-4.1-7.9c-2.9,0-4.1,4-4.1,7.9
					C274.9,345.4,276.1,349.4,279,349.4z"/>
			</g>
		</g>
		<g>
			<g>
				<path class="st3" d="M293.1,332.4h5c1.8,0,3.3,1.4,3.3,4.7c0,2.3-0.7,4.1-2.1,4.6v0.1c1.4,0.3,1.8,1.9,1.9,4.1
					c0,1.2,0,3.7,0.5,4.6h-1.1c-0.3-0.7-0.3-2-0.3-2.8c-0.1-2.5-0.2-5.3-2.2-5.2h-3.9v8h-1V332.4z M294.2,341h3.9
					c1.3,0,2.3-1.3,2.3-3.5c0-2.2-0.8-3.6-2.3-3.6h-3.9V341z"/>
			</g>
		</g>
		<g>
			<g>
				<path class="st3" d="M310.7,332.4h4.8c1.9,0,3.2,1.9,3.2,5.2c0,3.3-1.3,5.2-3.2,5.2h-3.8v7.7h-1V332.4z M311.7,341.3h3.6
					c1.4,0,2.4-1.2,2.4-3.7c0-2.5-1-3.7-2.4-3.7h-3.6V341.3z"/>
			</g>
		</g>
		<g>
			<g>
				<path class="st3" d="M332.3,332.1c3.4,0,5.1,4.5,5.1,9.4c0,4.9-1.7,9.4-5.1,9.4c-3.4,0-5.1-4.5-5.1-9.4
					C327.1,336.5,328.8,332.1,332.3,332.1z M332.3,349.4c2.9,0,4.1-4,4.1-7.9c0-3.9-1.2-7.9-4.1-7.9c-2.9,0-4.1,4-4.1,7.9
					C328.2,345.4,329.4,349.4,332.3,349.4z"/>
			</g>
		</g>
		<g>
			<g>
				<path class="st3" d="M346.4,332.4h5c1.8,0,3.3,1.4,3.3,4.7c0,2.3-0.7,4.1-2.1,4.6v0.1c1.4,0.3,1.8,1.9,1.9,4.1
					c0,1.2,0,3.7,0.5,4.6h-1.1c-0.3-0.7-0.3-2-0.3-2.8c-0.1-2.5-0.2-5.3-2.2-5.2h-3.9v8h-1V332.4z M347.4,341h3.9
					c1.3,0,2.3-1.3,2.3-3.5c0-2.2-0.8-3.6-2.3-3.6h-3.9V341z"/>
			</g>
		</g>
		<g>
			<g>
				<path class="st3" d="M367.1,332.4h1.2l4.3,18h-1.1l-1.3-5.6h-4.9l-1.3,5.6h-1.1L367.1,332.4z M365.5,343.4h4.3l-2.1-9.2
					L365.5,343.4z"/>
			</g>
		</g>
		<g>
			<g>
				<path class="st3" d="M378.7,332.4h8.6v1.5h-3.8v16.6h-1v-16.6h-3.8V332.4z"/>
			</g>
		</g>
		<g>
			<g>
				<path class="st3" d="M395.9,332.4h1v18h-1V332.4z"/>
			</g>
		</g>
		<g>
			<g>
				<path class="st3" d="M405.4,332.4h1.1l3.5,16.1h0l3.5-16.1h1.1l-4,18h-1.2L405.4,332.4z"/>
			</g>
		</g>
		<g>
			<g>
				<path class="st3" d="M427.6,332.1c3.4,0,5.1,4.5,5.1,9.4c0,4.9-1.7,9.4-5.1,9.4c-3.4,0-5.1-4.5-5.1-9.4
					C422.4,336.5,424.1,332.1,427.6,332.1z M427.6,349.4c2.9,0,4.1-4,4.1-7.9c0-3.9-1.2-7.9-4.1-7.9c-2.9,0-4.1,4-4.1,7.9
					C423.5,345.4,424.7,349.4,427.6,349.4z"/>
			</g>
		</g>
		<g>
			<g>
				<path class="st3" d="M442.2,344.5c0,3.7,1.6,4.9,3.5,4.9c1.1,0,2.9-1,2.9-3.7c0-2-1.2-2.9-2.2-3.3l-2.4-1
					c-1.3-0.5-2.5-1.5-2.5-4.3c0-1.8,0.7-5.1,3.7-5.1c2.1,0,4,1.9,4,5.6h-1c-0.1-2.8-1.4-4.1-3-4.1c-1.4,0-2.7,0.9-2.7,3.6
					c0,1.7,0.8,2.4,1.6,2.8l2.6,1.1c1.5,0.7,2.8,1.8,2.8,4.7c0,1.2-0.3,5.2-4.2,5.2c-2.6,0-4.5-1.9-4.3-6.3H442.2z"/>
			</g>
		</g>
	</g>
</g>
</svg>
