<?xml version="1.0" encoding="utf-8"?>
<!-- Generator: Adobe Illustrator 25.1.0, SVG Export Plug-In . SVG Version: 6.00 Build 0)  -->
<svg version="1.1" id="Capa_1" xmlns="http://www.w3.org/2000/svg" xmlns:xlink="http://www.w3.org/1999/xlink" x="0px" y="0px"
	 viewBox="0 0 715 530" style="enable-background:new 0 0 715 530;" xml:space="preserve">
<g>
	<path d="M0,318.1c1.7-0.2,4.7-5.8,5.7-7.5c6.4-10.4,12.9-20.8,19.8-31c1.7-2.5,15.8-20.7,18.7-23c25.6-20.2,44.1-46.7,62.8-72.8
		c11.6-16.2,22.9-32.8,32.9-49.9c6.9-11.8,11-25.3,17.3-37.5c7.3-14.2,16.7-26.9,30.7-35.4c4.5-2.7,9.7-4.3,14.6-6.3
		c8.1-3.3,16.3-6.5,24.5-9.7c3.5-1.4,7.2-2.3,10.8-3.6c1.5-0.5,3.1-1.2,4.1-2.3c8.6-8.6,17.2-17.2,25.7-25.9
		c0.8-0.8,2.1-1.7,2.1-2.7c0.5-6.2,5.9-7,9.9-8.9c1.4-0.7,3.9,0.1,5.4,1c5,3,9.7,6.5,14.6,9.7c4.5,2.9,8.9,4.5,14.6,1.5
		c4.7-2.5,10.5-2.9,15.8-4.2c9.4-2.3,18.6-5,28.1-6.6c10.7-1.8,22.9,8.9,23.7,19.6c0.1,1.1,1.2,2.6,2.3,3.1c1.7,0.8,3.7,0.9,6.6,1.5
		c-1.3,2.4-2.3,4.4-3.5,6.2c-2.9,4.1-1.7,8.5,3.2,9.2c5.2,0.8,10.5,0.3,15.7,0.6c16.9,0.9,34,0.4,49.3,9.8
		c15.2,9.3,27.2,21.8,33.1,38.3c9,25.3,25.6,45.7,40.1,67.5c7.3,11,15.3,21.7,22.9,32.5c0.9,1.2,2,2.5,2.3,3.8
		c1.8,7.8,7.8,12,13.6,16.5c25.6,20.1,49.4,42,71.5,66c12.9,14,26.2,27.9,42.2,38.8c4,2.7,6.3,7.7,9.5,11.6c1.7,2,3.6,3.9,5.5,5.7
		c3.1,2.8,6.3,5.4,9.5,8.1c9.8,8.6,6.4,10.5,0.4,18.5c-2.9,3.8-6.8,6.9-10.6,10c-2.3,2-16.3,8.2-18,7.2
		c-5.9-3.5-34.7-20.6-42.1-24.7c-10-5.5-36.3-23.8-38.2-25c-16.7-9.7-33.5-19.2-49.5-30c-8.7-5.9-16-14-23.4-21.5
		c-11.9-12.1-23.3-24.6-34.9-36.9c-4.7,6.1-8.7,12-13.4,17.3c-6.5,7.4-7.1,16.3-7.7,25.3c-0.6,8.8-0.9,17.6-1.3,26.5
		c-0.1,1.6-0.3,3.2-0.5,5.1c-2.2-0.3-0.4,11.9,1.6,13c2.4,1.3,0.3,15.4-0.6,20.6c-1.1,6.6-1.9,9.5-0.8,11.3c1.2,2,0.8,5.1,1,7.7
		c0.4,5.7,11.6,44.9,15.3,56.7c1.7,5.4,2.7,10.6-0.1,16.4c-1.5,3.1,0.4,7.8,0.6,11.7c0.8,13.3,1.6,26.6,2.1,39.9
		c0.1,1.9-1,4.5-2.5,5.7c-4,3.2-8.1,7-12.8,8.3c-25.8,7-51.6,14.5-77.9,19.4c-16.2,3-33.2,1.2-49.9,1.9
		c-30.4,1.2-60.2-2.5-89.3-11.1c-10-3-19.7-7.9-28.8-13.4c-9.8-5.9-11.9-13.4-8.4-24.4c7.9-24.7,15.8-49.4,24.2-73.8
		c4.3-12.4,9.9-24.3,15-36.3c1-2.2,2.7-4.1,4.1-6.2c-4.9-3.1-2.1-7.3-1.7-10.9c0.6-4.8,2.2-9.5,3.5-14.9c0.3-0.1,1.5-0.4,2.8-0.8
		c-7.7-1.8-4.6-8.3-5.5-12.5c-2.2-10.6-4.7-20.9-9.2-30.8c-7.5-16.5-14.2-33.3-21.3-50c-7.1-16.8-14.3-33.7-21.4-50.5
		c-0.3-0.8-0.8-1.4-1.6-2.9c-2,1.4-4.1,2.4-5.5,4.1c-9.5,11.1-18.8,22.5-28.2,33.6c-15,17.6-30.1,35.2-45.2,52.8
		c-1.3,1.5-21.6,25.6-29,37.6c-3.2,5.2-8.4,9.1-11.7,14.6c-3.9,6.5-14.3,12.8-12.8,13.6c-0.4,0.7-0.6,1.5-1.2,2
		c-8.1,7.9-16.3,15.7-24.4,23.6c-2.2,2.2-4,4.8-6.1,7.2c-4.6,5.4-9,11.1-14,16.1c-7.5,7.5-15.6,14.5-23.4,21.7
		c-1.1,1-2.4,1.7-3.6,2.6C0,384.1,0,351.1,0,318.1z"/>
</g>
</svg>
